<?xml version="1.0" encoding="iso-8859-1"?>
<!-- Generator: Adobe Illustrator 19.0.0, SVG Export Plug-In . SVG Version: 6.00 Build 0)  -->
<svg version="1.1" id="Capa_1" xmlns="http://www.w3.org/2000/svg" xmlns:xlink="http://www.w3.org/1999/xlink" x="0px" y="0px"
	 viewBox="0 0 512 512" style="enable-background:new 0 0 512 512;" xml:space="preserve">
<g>
	<g>
		<path d="M375.488,273.067h-17.084v-34.133h17.075c9.404,0,17.05-7.646,17.05-17.05v-34.167c0-9.404-7.646-17.05-17.05-17.05
			h-17.084v-14.532c0-15.514-12.621-28.134-28.134-28.134h-8.499c-4.309-12.945-14.566-48.452-14.566-93.867
			C307.196,15.309,291.887,0,273.062,0h-68.267c-18.825,0-34.133,15.309-34.133,34.133c0,45.414-10.249,80.922-14.566,93.867h-8.499
			c-15.514,0-28.134,12.621-28.134,28.134v199.731c0,15.514,12.621,28.134,28.134,28.134h8.499
			c4.318,12.945,14.566,48.452,14.566,93.867c0,18.825,15.309,34.133,34.133,34.133h68.267c18.825,0,34.133-15.309,34.133-34.133
			c0-45.414,10.249-80.922,14.566-93.867h8.508c15.514,0,28.134-12.621,28.134-28.134v-14.532h17.084
			c9.404,0,17.05-7.646,17.05-17.05v-34.167C392.538,280.712,384.892,273.067,375.488,273.067z M187.729,34.133
			c0-9.412,7.654-17.067,17.067-17.067h68.267c9.412,0,17.067,7.654,17.067,17.067c0,42.837,8.448,76.902,13.67,93.867H174.059
			C179.281,111.036,187.729,76.971,187.729,34.133z M288.098,292.096c1.732,1.715,2.645,4.079,2.517,6.511s-1.28,4.693-3.183,6.212
			l-43.17,34.637c-1.544,1.246-3.43,1.877-5.342,1.877c-1.254,0-2.517-0.273-3.695-0.845c-2.961-1.417-4.838-4.412-4.838-7.689
			v-55.868l-28.134,27.81c-3.354,3.311-8.755,3.277-12.066-0.068c-3.311-3.354-3.285-8.755,0.068-12.075L227.281,256l-37.026-36.599
			c-3.354-3.311-3.379-8.713-0.068-12.075c3.311-3.354,8.713-3.379,12.066-0.068l28.134,27.81V179.2
			c0-3.285,1.886-6.272,4.838-7.689c2.961-1.425,6.477-1.024,9.037,1.041l43.17,34.637c1.894,1.519,3.055,3.78,3.183,6.212
			s-0.794,4.796-2.517,6.511l-36.523,36.096L288.098,292.096z M290.129,477.867c0,9.412-7.654,17.067-17.067,17.067h-68.267
			c-9.412,0-17.067-7.654-17.067-17.067c0-42.837-8.448-76.902-13.67-93.867h129.741
			C298.577,400.964,290.129,435.029,290.129,477.867z M358.396,187.733l17.067-0.017l0.026,34.15h-17.092V187.733z M358.396,324.267
			v-34.133l17.067-0.017l0.026,34.15H358.396z"/>
	</g>
</g>
<g>
	<g>
		<polygon points="247.462,196.983 247.462,236.066 269.282,214.494 		"/>
	</g>
</g>
<g>
	<g>
		<polygon points="247.462,275.934 247.462,315.017 269.282,297.506 		"/>
	</g>
</g>
<g>
</g>
<g>
</g>
<g>
</g>
<g>
</g>
<g>
</g>
<g>
</g>
<g>
</g>
<g>
</g>
<g>
</g>
<g>
</g>
<g>
</g>
<g>
</g>
<g>
</g>
<g>
</g>
<g>
</g>
</svg>
