<?xml version="1.0" encoding="utf-8"?>
<!-- Generator: Adobe Illustrator 23.0.1, SVG Export Plug-In . SVG Version: 6.00 Build 0)  -->
<svg version="1.1" id="Capa_1" xmlns="http://www.w3.org/2000/svg" xmlns:xlink="http://www.w3.org/1999/xlink" x="0px" y="0px"
	 viewBox="0 0 500 500" style="enable-background:new 0 0 500 500;" xml:space="preserve">
<g>
	<path d="M155.3,349.2V69.4h177.5v216H350V54.9c0-13.5-11-24.6-24.6-24.6H163c-13.5,0-24.6,11-24.6,24.6v315.2
		c0,13.5,11,24.6,24.6,24.6h44.1l-24.2-45.6H155.3L155.3,349.2z M218.1,48.1h52c1.7,0,2.9,1.2,2.9,2.9c0,1.7-1.2,2.9-2.9,2.9h-52
		c-1.7,0-2.9-1.2-2.9-2.9C215,49.5,216.4,48.1,218.1,48.1z M361.6,318.8v-3.1c0-6.8-5.6-12.2-12.2-12.2h-1.2
		c-6.8,0-12.2,5.6-12.2,12.2v3.1v10.8h-4.8v-10.8v-3.1c0-6.8-5.6-12.2-12.2-12.2h-1.7c-6.8,0-12.2,5.6-12.2,12.2v13.9h-4.8v-13.9
		c0-6.8-5.6-12.2-12.2-12.2h-1.2c-6.8,0-12.2,5.6-12.2,12.2v3.1v10.8h-3.9V297c25.5-6.6,44.3-29.4,44.3-57c0-32.5-26.5-59-59-59
		s-59,26.5-59,59c0,28.6,20.5,52.4,47.6,57.8v31.7v14.7v29.6c-13-13.9-21.1-29.6-29.6-31.5c-11-2.5-20.3,5.8-12.6,20.5
		c7.7,14.7,43.9,78.1,43.9,78.1c4.8,11.6,20.3,28.8,56.7,28.8c58.6,0,58.6-52.4,58.6-52.4v-75.6c0,0,0,0,0-0.2L361.6,318.8
		L361.6,318.8z M258.1,236.7h-1.2c-6.8,0-12.4,5.6-12.4,12.4v13.7c-8.3-4.1-14.1-12.6-14.1-22.6c0-14.1,11.4-25.5,25.5-25.5
		c14.1,0,25.5,11.4,25.5,25.5c0,8.5-4.3,16.2-10.8,20.7v-11.8C270.3,242.3,264.9,236.7,258.1,236.7z M202.8,240.3
		c0-29.2,23.8-52.8,52.8-52.8c29,0,52.8,23.8,52.8,52.8c0,24-16.2,44.1-38.1,50.5v-15.9c13.5-5.8,23-19.1,23-34.6
		c0-20.7-16.8-37.7-37.7-37.7s-37.7,16.8-37.7,37.7c0,16.8,11,30.9,26.1,35.6v15.9C220.6,286.5,202.8,265.3,202.8,240.3z"/>
</g>
</svg>
