<?xml version="1.0" encoding="iso-8859-1"?>
<!-- Generator: Adobe Illustrator 19.0.0, SVG Export Plug-In . SVG Version: 6.00 Build 0)  -->
<svg version="1.1" id="Capa_1" xmlns="http://www.w3.org/2000/svg" xmlns:xlink="http://www.w3.org/1999/xlink" x="0px" y="0px"
	 viewBox="0 0 512 512" style="enable-background:new 0 0 512 512;" xml:space="preserve">
<g>
	<g>
		<path d="M190.34,397.394l21.213,21.213c24.509-24.508,64.386-24.508,88.895,0l21.213-21.213
			C285.455,361.188,226.545,361.188,190.34,397.394z"/>
	</g>
</g>
<g>
	<g>
		<path d="M153.394,360.447l21.213,21.213c44.881-44.88,117.906-44.88,162.787,0l21.213-21.213
			C302.029,303.869,209.971,303.869,153.394,360.447z"/>
	</g>
</g>
<g>
	<g>
		<path d="M256.001,421.108c-11.204,0-21.739,4.363-29.661,12.286l21.213,21.213c4.658-4.657,12.236-4.657,16.895,0l21.213-21.213
			C277.739,425.471,267.205,421.108,256.001,421.108z"/>
	</g>
</g>
<g>
	<g>
		<path d="M434,65c0-44.659-92.27-65-178-65S78,20.341,78,65c0,0.336,0.022,0.667,0.032,1H78v381c0,44.659,92.27,65,178,65
			s178-20.341,178-65V66h-0.032C433.978,65.667,434,65.336,434,65z M108,103.29c8.102,4.308,17.559,8.076,28.018,11.316l7.831,7.831
			l-19.037,19.037L108,124.662V103.29z M108,200.713l16.812-16.813l25.912,25.912l-24.246,24.246
			C111.722,227.274,108,221.433,108,220V200.713z M341.438,188.6L322.4,169.563l25.912-25.912l19.037,19.037L341.438,188.6z
			 M354.768,244.355c-10.145,2.525-21.202,4.627-32.938,6.278l19.608-19.608L354.768,244.355z M301.187,148.349l-18.986-18.986
			c14.15-0.686,28.205-1.929,41.727-3.755L301.187,148.349z M301.187,190.776l19.037,19.037L296.938,233.1L277.9,214.063
			L301.187,190.776z M256.688,192.85L233.4,169.563l23.287-23.287l23.288,23.287L256.688,192.85z M276.031,254.618
			C269.443,254.87,262.757,255,256,255c-6.304,0-12.546-0.114-18.704-0.334l19.392-19.391L276.031,254.618z M235.474,214.062
			L216.437,233.1l-23.287-23.287l19.037-19.038L235.474,214.062z M212.187,148.35l-22.534-22.534
			c13.454,1.766,27.414,2.966,41.457,3.611L212.187,148.35z M190.974,169.562L171.937,188.6l-25.912-25.912l19.037-19.038
			L190.974,169.562z M191.768,250.856c-11.906-1.625-23.127-3.713-33.432-6.23l13.601-13.601L191.768,250.856z M404,447
			c0,1.909-6.609,11.649-37.141,21.015C337.459,477.033,298.089,482,256,482s-81.459-4.967-110.859-13.985
			C114.609,458.649,108,448.909,108,447V258.291C142.16,276.455,200.448,285,256,285s113.84-8.545,148-26.709V447z M404,220
			c0,1.401-3.575,7.023-17.544,13.618l-23.806-23.806l25.912-25.912L404,199.338V220z M388.562,141.475l-19.037-19.037l8.462-8.462
			c9.665-3.095,18.431-6.653,26.012-10.685v22.746H404L388.562,141.475z M366.859,86.015C337.459,95.033,298.089,100,256,100
			s-81.459-4.967-110.859-13.985C114.609,76.649,108,66.909,108,65s6.609-11.649,37.141-21.015C174.541,34.967,213.911,30,256,30
			s81.459,4.967,110.859,13.985C397.391,53.351,404,63.091,404,65S397.391,76.649,366.859,86.015z"/>
	</g>
</g>
<g>
</g>
<g>
</g>
<g>
</g>
<g>
</g>
<g>
</g>
<g>
</g>
<g>
</g>
<g>
</g>
<g>
</g>
<g>
</g>
<g>
</g>
<g>
</g>
<g>
</g>
<g>
</g>
<g>
</g>
</svg>
